{
  "accessors": [
    {
      "bufferView": 2,
      "componentType": 5126,
      "count": 1296,
      "max": [
        0.915727972984314,
        -0.10118100047111511,
        0.9367489814758301
      ],
      "min": [
        -0.9307559728622437,
        -1.7522000074386597,
        -0.9097350239753723
      ],
      "type": "VEC3"
    },
    {
      "bufferView": 2,
      "byteOffset": 15552,
      "componentType": 5126,
      "count": 1296,
      "max": [
        0.9978443384170532,
        1.0,
        0.9978442192077637
      ],
      "min": [
        -0.9978445172309875,
        -1.0,
        -0.9978443384170532
      ],
      "type": "VEC3"
    },
    {
      "bufferView": 1,
      "componentType": 5126,
      "count": 1296,
      "max": [
        0.9982590079307556,
        0.9984999895095825
      ],
      "min": [
        0.001500000013038516,
        0.001500000013038516
      ],
      "type": "VEC2"
    },
    {
      "bufferView": 0,
      "componentType": 5125,
      "count": 3216,
      "type": "SCALAR"
    }
  ],
  "asset": {
    "extras": {
      "author": "Tasneem (https://sketchfab.com/Tasneem)",
      "license": "CC-BY-4.0 (http://creativecommons.org/licenses/by/4.0/)",
      "source": "https://sketchfab.com/3d-models/low-poly-stylized-wooden-bucket-3d04b96405ff4ba5be7cfb47726fbb03",
      "title": "Low Poly Stylized Wooden Bucket"
    },
    "generator": "Sketchfab-12.65.0",
    "version": "2.0"
  },
  "bufferViews": [
    {
      "buffer": 0,
      "byteLength": 12864,
      "name": "floatBufferViews",
      "target": 34963
    },
    {
      "buffer": 0,
      "byteLength": 10368,
      "byteOffset": 12864,
      "byteStride": 8,
      "name": "floatBufferViews",
      "target": 34962
    },
    {
      "buffer": 0,
      "byteLength": 31104,
      "byteOffset": 23232,
      "byteStride": 12,
      "name": "floatBufferViews",
      "target": 34962
    }
  ],
  "buffers": [
    {
      "byteLength": 54336,
      "uri": "scene.bin"
    }
  ],
  "extensionsUsed": [
    "KHR_materials_unlit"
  ],
  "images": [
    {
      "uri": "textures/Bucket_baseColor.jpeg"
    }
  ],
  "materials": [
    {
      "doubleSided": true,
      "extensions": {
        "KHR_materials_unlit": {}
      },
      "name": "Bucket",
      "pbrMetallicRoughness": {
        "baseColorTexture": {
          "index": 0
        },
        "metallicFactor": 0.0
      }
    }
  ],
  "meshes": [
    {
      "name": "defaultMaterial",
      "primitives": [
        {
          "attributes": {
            "NORMAL": 1,
            "POSITION": 0,
            "TEXCOORD_0": 2
          },
          "indices": 3,
          "material": 0,
          "mode": 4
        }
      ]
    }
  ],
  "nodes": [
    {
      "children": [
        1
      ],
      "matrix": [
        1.0,
        -2.832769343193999e-16,
        -6.842791131287157e-32,
        0.0,
        4.002661120305586e-32,
        3.828568672208042e-16,
        -1.0,
        0.0,
        2.832769343193999e-16,
        1.0,
        3.828568672208042e-16,
        0.0,
        2.6281060661048627e-16,
        2.4052044800271154e-09,
        3.5943134690796796e-08,
        1.0
      ],
      "name": "Sketchfab_model"
    },
    {
      "children": [
        2
      ],
      "matrix": [
        1.0,
        0.0,
        0.0,
        0.0,
        0.0,
        -4.371139006309477e-08,
        0.999999999999999,
        0.0,
        0.0,
        -0.999999999999999,
        -4.371139006309477e-08,
        0.0,
        0.0,
        0.0,
        0.0,
        1.0
      ],
      "name": "Collada visual scene group"
    },
    {
      "children": [
        3
      ],
      "name": "Bucket"
    },
    {
      "mesh": 0,
      "name": "defaultMaterial"
    }
  ],
  "samplers": [
    {
      "magFilter": 9729,
      "minFilter": 9987,
      "wrapS": 10497,
      "wrapT": 10497
    }
  ],
  "scene": 0,
  "scenes": [
    {
      "name": "Sketchfab_Scene",
      "nodes": [
        0
      ]
    }
  ],
  "textures": [
    {
      "sampler": 0,
      "source": 0
    }
  ]
}
